<svg xmlns="http://www.w3.org/2000/svg" id="fbcb77b8-9057-4a89-9c31-e27c7eb0ed40" data-name="Layer 1" width="800" height="600" viewBox="0 0 793.57972 828"><title>Memory storage</title><path d="M359.17389,322.2052c0-75.75611,111.08263-137.16857,248.11-137.16857s248.11,61.41246,248.11,137.16857" transform="translate(-203.21014 -36)" fill="none" stroke="#3f3d56" stroke-miterlimit="10" stroke-width="2"/><path d="M685.2975,237.85074H483.44675Q423.562,136.92537,483.44675,36H685.2975Q601.56463,136.92537,685.2975,237.85074Z" transform="translate(-203.21014 -36)" fill="#e6e6e6"/><rect x="309.07244" y="24.02985" width="113.74129" height="14.41791" fill="#ffd246"/><rect x="272.22667" y="71.28856" width="150.58706" height="4.80597" fill="#fff"/><rect x="272.22667" y="96.1194" width="150.58706" height="4.80597" fill="#fff"/><rect x="272.22667" y="120.95025" width="150.58706" height="4.80597" fill="#fff"/><path d="M855.39385,322.2052c0,79.425-111.08262,143.81163-248.11,143.81163s-248.11-64.38666-248.11-143.81163" transform="translate(-203.21014 -36)" fill="none" stroke="#3f3d56" stroke-miterlimit="10" stroke-width="2"/><path d="M810.26354,468.05793c-55.45907,29.91083-127.8227,48.011-206.98144,48.011-75.89677,0-145.54691-16.63914-200.04-44.37389" transform="translate(-203.21014 -36)" fill="none" stroke="#3f3d56" stroke-miterlimit="10" stroke-width="2"/><path d="M731.188,147.90572c105.54421,27.741,180.712,88.76157,187.70175,160.63026" transform="translate(-203.21014 -36)" fill="none" stroke="#3f3d56" stroke-miterlimit="10" stroke-width="2"/><path d="M302.37337,261.82294c17.78361-32.68552,50.27112-61.45009,92.83643-83.54855" transform="translate(-203.21014 -36)" fill="none" stroke="#3f3d56" stroke-miterlimit="10" stroke-width="2"/><path d="M520.56793,611.70682H722.41867q59.88471-100.92537,0-201.85074H520.56793Q604.3008,510.78145,520.56793,611.70682Z" transform="translate(-203.21014 -36)" fill="#f2f2f2"/><rect x="384.14592" y="412.30384" width="113.74129" height="14.41791" fill="#ffd246"/><rect x="375.33497" y="455.55757" width="150.58706" height="4.80597" fill="#fff"/><rect x="375.33497" y="480.38841" width="150.58706" height="4.80597" fill="#fff"/><path d="M435.00323,474.6996H233.15249q-59.88471-100.92537,0-201.85074H435.00323Q351.27038,373.77423,435.00323,474.6996Z" transform="translate(-203.21014 -36)" fill="#f2f2f2"/><rect x="52.37022" y="260.87871" width="113.74129" height="14.41791" fill="#ffd246"/><rect x="27.53937" y="300.92846" width="150.58706" height="4.80597" fill="#fff"/><rect x="27.53937" y="325.75931" width="150.58706" height="4.80597" fill="#fff"/><rect x="27.53937" y="350.59015" width="150.58706" height="4.80597" fill="#fff"/><rect x="27.53937" y="375.421" width="150.58706" height="4.80597" fill="#fff"/><path d="M764.99677,381.72016H966.84751q59.88471-100.92537,0-201.85074H764.99677Q848.72962,280.79479,764.99677,381.72016Z" transform="translate(-203.21014 -36)" fill="#f2f2f2"/><rect x="626.17177" y="163.8943" width="113.74129" height="14.41791" fill="#ffd246"/><rect x="614.15684" y="203.94405" width="150.58706" height="4.80597" fill="#fff"/></svg>