<svg xmlns="http://www.w3.org/2000/svg" xmlns:xlink="http://www.w3.org/1999/xlink" width="794.706" height="858.713" viewBox="0 0 794.706 858.713">
  <defs>
    <filter id="body" x="0" y="36.674" width="662.01" height="822.039" filterUnits="userSpaceOnUse">
      <feOffset input="SourceAlpha"/>
      <feGaussianBlur stdDeviation="30" result="blur"/>
      <feFlood flood-opacity="0.078"/>
      <feComposite operator="in" in2="blur"/>
      <feComposite in="SourceGraphic"/>
    </filter>
    <clipPath id="clip-path">
      <path id="screen" d="M224.059,543.093H26.753A26.731,26.731,0,0,1,0,516.34V26.754A26.731,26.731,0,0,1,26.753,0H52.169a3.349,3.349,0,0,1,3.344,3.284V5.351A14.732,14.732,0,0,0,64.5,18.909a14.62,14.62,0,0,0,5.727,1.156h111.7A13.366,13.366,0,0,0,195.3,6.688V3.344A3.349,3.349,0,0,1,198.64,0h25.419a26.731,26.731,0,0,1,26.753,26.754V516.34a26.73,26.73,0,0,1-26.753,26.753Z" transform="translate(0 0)" fill="#eeeef2"/>
    </clipPath>
    <filter id="body-2" x="234.025" y="0" width="560.681" height="844.571" filterUnits="userSpaceOnUse">
      <feOffset input="SourceAlpha"/>
      <feGaussianBlur stdDeviation="30" result="blur-2"/>
      <feFlood flood-opacity="0.078"/>
      <feComposite operator="in" in2="blur-2"/>
      <feComposite in="SourceGraphic"/>
    </filter>
    <clipPath id="clip-path-2">
      <path id="screen-2" data-name="screen" d="M246.787,670.182H29.467A29.442,29.442,0,0,1,0,640.715V101.468A29.442,29.442,0,0,1,29.467,72H57.461a3.688,3.688,0,0,1,3.683,3.617v2.276A16.193,16.193,0,0,0,77.351,94.1H200.376a14.722,14.722,0,0,0,14.733-14.734V75.683A3.688,3.688,0,0,1,218.789,72h28a29.443,29.443,0,0,1,29.467,29.468V640.715a29.442,29.442,0,0,1-29.467,29.467Z" transform="translate(0 -72)" fill="#ccc"/>
    </clipPath>
  </defs>
  <g id="Group_125" data-name="Group 125" transform="translate(-909.664 -110.126)">
    <g id="phone" transform="translate(999.664 344.285) rotate(-22)">
      <g transform="matrix(0.93, 0.37, -0.37, 0.93, 4.27, -250.82)" filter="url(#body)">
        <path id="body-3" data-name="body" d="M42.805,576.534A40.13,40.13,0,0,1,2.675,536.4V212.689A2.675,2.675,0,0,1,0,210.013V173.9a2.675,2.675,0,0,1,2.675-2.675v-10.7A2.675,2.675,0,0,1,0,157.845V121.728a2.675,2.675,0,0,1,2.675-2.676V98.987A2.675,2.675,0,0,1,0,96.312V80.26a2.675,2.675,0,0,1,2.675-2.676V40.13A40.13,40.13,0,0,1,42.805,0H244.125a40.129,40.129,0,0,1,40.13,40.13V133.1a2.675,2.675,0,0,1,2.676,2.675v60.2a2.676,2.676,0,0,1-2.676,2.676V536.4a40.129,40.129,0,0,1-40.13,40.13Z" transform="translate(90 234.16) rotate(-22)" fill="#fff"/>
      </g>
      <path id="camera" d="M44.812,4.013a4.013,4.013,0,1,1,4.013,4.013A4.012,4.012,0,0,1,44.812,4.013ZM2.007,6.02a2.007,2.007,0,1,1,0-4.013H33.442a2.007,2.007,0,0,1,0,4.013Z" transform="translate(125.741 18.727)" fill="#eeeef2"/>
    </g>
    <g id="YOUR_DESIGN" data-name="YOUR DESIGN" transform="translate(1022.671 353.023) rotate(-22)" clip-path="url(#clip-path)">
      <rect id="Home_Screen" data-name="Home Screen" width="250.813" height="543.093" transform="translate(0 0)" fill="#ccc"/>
    </g>
    <g id="phone-2" data-name="phone" transform="matrix(0.995, 0.105, -0.105, 0.995, 1300.066, 200.126)">
      <g transform="matrix(0.99, -0.1, 0.1, 0.99, -397.67, -48.7)" filter="url(#body-2)">
        <path id="body-4" data-name="body" d="M47.147-349.985a44.2,44.2,0,0,1-44.2-44.2V-750.737A2.947,2.947,0,0,1,0-753.684v-39.781a2.947,2.947,0,0,1,2.946-2.946V-808.2A2.947,2.947,0,0,1,0-811.144v-39.781a2.947,2.947,0,0,1,2.946-2.947v-22.1A2.947,2.947,0,0,1,0-878.918V-896.6a2.947,2.947,0,0,1,2.946-2.947V-940.8a44.2,44.2,0,0,1,44.2-44.2h221.74a44.2,44.2,0,0,1,44.2,44.2v102.4a2.947,2.947,0,0,1,2.947,2.946v66.3a2.947,2.947,0,0,1-2.947,2.947v372.022a44.2,44.2,0,0,1-44.2,44.2Z" transform="matrix(0.99, 0.1, -0.1, 0.99, 287.44, 1069.6)" fill="#fff"/>
      </g>
      <path id="camera-2" data-name="camera" d="M96.358-961.58a4.419,4.419,0,0,1,4.42-4.42,4.42,4.42,0,0,1,4.42,4.42,4.42,4.42,0,0,1-4.42,4.42A4.42,4.42,0,0,1,96.358-961.58ZM49.21-959.37A2.211,2.211,0,0,1,47-961.58a2.21,2.21,0,0,1,2.21-2.21H83.834a2.21,2.21,0,0,1,2.21,2.21,2.21,2.21,0,0,1-2.21,2.21Z" transform="translate(91.495 986.627)" fill="#eeeef2"/>
    </g>
    <g id="YOUR_DESIGN-2" data-name="YOUR DESIGN" transform="matrix(0.995, 0.105, -0.105, 0.995, 1317.923, 220.52)" clip-path="url(#clip-path-2)">
      <g id="Home_Screen-2" data-name="Home Screen" transform="translate(0 0)" fill="#ccc">
        <path d="M 275.7538452148438 597.681640625 L 0.4999995231628418 597.681640625 L 0.4999995231628418 0.4999741613864899 L 275.7538452148438 0.4999741613864899 L 275.7538452148438 597.681640625 Z" stroke="none"/>
        <path d="M 1 1 L 1 597.181640625 L 275.2538452148438 597.181640625 L 275.2538452148438 1 L 1 1 M 0 0 L 276.2538452148438 0 L 276.2538452148438 598.181640625 L 0 598.181640625 L 0 0 Z" stroke="none" fill="#95989a"/>
      </g>
    </g>
  </g>
</svg>
